<svg version="1.2" xmlns="http://www.w3.org/2000/svg" viewBox="0 0 400 400" width="400" height="400">
	<style>
		.s0 { fill: #cc6699;stroke: #cc6699;stroke-miterlimit:100 } 
	</style>
	<path id="Background" fill-rule="evenodd" class="s0" d="m385.08 278.74c-0.64 19.83-14.84 27.94-17.5 28.53-1.9 0.45-2.94 0.52-3.23-1.4-0.18-1.32 0.52-1.99 2.77-3.76 2.25-1.77 9.01-7.74 10.22-18.43 1.22-10.69-5.08-36.34-37.24-41.13-15.01-2.22-26.79 0.44-35.86 5.3 1.68 5.61 2.95 11.43 3.12 17.25 0.46 12.91-6.52 22.42-13.74 29.2q-1.42 1.32-2.92 2.5-1.5 1.17-3.07 2.2-1.56 1.03-3.18 1.9-1.63 0.87-3.3 1.58c-3 1.62-7.04 3.32-9.87 2.58-6.3-1.62-9.65-8.7-5.37-24.4 2.31-8.48 8.95-21.38 19.68-32.51-2.48-6.42-5.19-12.98-6.57-18.95q-0.57-2.33-1.08-4.69-0.51-2.36-0.96-4.74-0.45-2.38-0.83-4.78-0.39-2.4-0.71-4.81c0 0-8.84 23.39-20.27 44.69-0.64 1.25-1.33 2.51-1.96 3.69 2.19 6.63 3.98 13.71 4.21 20.79 0.41 12.82-3.98 22.56-11.2 29.34q-1.34 1.23-2.75 2.34-1.41 1.1-2.87 2.08-1.46 0.98-2.97 1.83-1.52 0.85-3.07 1.56c-2.26 1.33-6.93 3.39-13.58 3.98-3.63 0.37-7.09 0.08-9.06-1.84-2.65-2.51-3-5.75-1.61-10.1 1.15-3.69 9.94-16.51 17.32-27.72 2.02-3.09 3.99-6.26 5.72-9.21q-0.01-0.02-0.02-0.03-0.01-0.02-0.02-0.04-0.01-0.02-0.01-0.04-0.01-0.02-0.01-0.04c0 0 1.33-2.21 3.53-6.05-2.72-7.44-6.13-15.11-7.74-22.11q-0.57-2.34-1.08-4.7-0.51-2.36-0.96-4.74-0.45-2.38-0.83-4.77-0.39-2.4-0.71-4.81c0 0-8.95 29.26-18.31 52.71-7.21 18.13-12 29.12-14.2 33.91v0.22c0 0-0.29 0.66-0.86 1.77q-0.42 0.89-0.41 0.89v-0.08c-2.43 4.57-7.86 13.49-13.28 13.49-14.85 0-9.42-38.48-9.42-38.48 0 0-4.33 14.23-9.24 26.47-3.98 10.02-7.56 18.43-15.53 18.43-2.25 0-5.88-0.08-8.89-3.69-6.81-8.26-12.07-29.27-11.03-45.49 0.87-13.86 2.54-23.44 4.85-31.4-4.1 2.87-8.77 6.19-13.56 9.8q-3.74 2.77-7.39 5.53c0.05 0.22 0.17 0.37 0.23 0.59 6.12 15.04 7.73 48.07-5.55 73.36-13.28 25.28-37.99 40.69-62.12 32.14-7.74-2.8-19.52-23.3-9.41-51.9 8.94-25.21 44.69-49.1 54.1-55.07 0.81-0.59 1.67-1.18 2.6-1.85-18.77-20.93-65.65-49.24-72.23-92.66-1.85-12.24 2.65-41.51 30.77-75.13 23.67-28.23 56.58-49.91 87.01-63.69 51.07-23.15 105.09-9.51 113.38 32.07 8.14 40.91-19.63 89.79-55.31 107.34-31.76 15.7-58.03 13.19-68.83 8.7-12.29-5.16-19.51-15.49-21.25-21.31-0.69-2.29-1.9-6.12 0-7.45 1.16-0.81 1.62-0.59 4.68 3.76 2.95 4.13 14.72 15.19 37.13 12.02 58.77-8.4 94.17-66.72 82.97-98.05-7.79-21.97-53.04-31.85-109.64 4.13-69.06 43.94-72.81 80.13-73.39 93.92-1.62 37.82 36.54 57.72 57.21 85.89 0.29 0.37 0.52 0.73 0.81 1.1 3.87-2.73 7.97-5.6 11.96-8.4 10.39-7.3 20.27-14.16 24.83-17.33 7.27-13.49 22.05-28.38 32.68-28.38 17.03 0 11.2 31.26 11.2 31.26 0 0 0.35-1.48 0.81-1.48 0.46 0 2.37-4.05 7.62-1.62 5.43 2.58 4.16 7.37 4.22 7.89 0.05 0.96-6.36 28.68-9.07 46.52-1.27 8.48-0.52 14.67-0.17 14.67 0.52 0 1.61-2.14 2.6-4.5v-0.07c0 0 0.75-1.77 2.02-4.94 0-0.15-0.12 0.22-0.29 0.59 0.11-0.3 0.29-0.66 0.52-1.25 1.5-3.69 3.58-9.15 6-15.93 4.73-13.34 22.81-64.65 24.31-70.33 1.5-5.68 2.31-11.57 3.06-14.08 0.75-2.51 7.17-4.42 14.61-4.35 7.44 0.07 8.19 4.13 8.25 4.94 0.06 0.81-3.58 12.09-4.39 20.05-0.81 7.96-0.05 11.95 0.64 18.65 0.46 4.43 2.6 9.96 5.14 16.22 7.68-16.07 21.25-46.88 22.57-55.51q0.28-1.8 0.6-3.58 0.33-1.78 0.71-3.54 0.39-1.76 0.82-3.5 0.44-1.74 0.94-3.46c0.74-2.51 7.15-4.42 14.6-4.35 7.45 0.07 8.2 4.13 8.26 4.94 0.06 0.81-3.58 12.09-4.39 20.05-0.81 7.96-0.06 11.94 0.64 18.65 0.57 5.75 4.1 13.42 7.5 22.19q3.9-2.44 7.99-4.31 4.09-1.86 8.32-3.12 4.22-1.26 8.54-1.89 4.31-0.63 8.65-0.63c33.43-0.23 52.31 27.34 51.39 52.4zm-288.23-3.46c-0.57 0.44-1.15 0.81-1.67 1.25 0 0-0.23 0.15-0.69 0.52-2.78 2.14-5.03 3.9-6.59 5.08-6.81 5.46-17.09 14.31-25.06 23.89-13.1 15.79-15.82 37.6-8.94 42.7 6.4 4.72 21.3-0.89 31.92-15.7 11.21-15.57 15.82-35.33 11.03-57.74zm75.93-53.29c-1.5-3.32-7.91-0.66-13.74 7.67-3.64 5.16-9.76 18.43-12.65 29.56-5.72 22.12-3.23 44.6 0.81 45.93 4.73 1.55 12.53-27.94 16.22-39.52 2.31-7.22 11.38-39.29 9.36-43.64zm69.24 57.06c0-0.44-0.06-0.81-0.06-1.18-2.3 3.84-4.44 7.3-6.29 10.25-3.17 5.01-11.2 16-11.2 16 0 0-1.16 1.4-0.64 1.77 0.7 0.51 2.14-0.15 3.7-1.18 4.49-3.54 14.41-12.46 14.49-25.66zm49.89-14.08q-0.01-1.01-0.09-2.02-0.08-1.01-0.22-2.01-0.14-1-0.33-1.99-0.2-0.98-0.45-1.94c-6.02 6.78-9.48 13.86-10.98 18.06-3.87 10.76-4.04 14.23-2.89 15.26 5.61-2.58 14.91-8.77 14.96-25.36z"/>
</svg>